<?xml version="1.0" standalone="no"?>
<!DOCTYPE svg PUBLIC "-//W3C//DTD SVG 20010904//EN"
 "http://www.w3.org/TR/2001/REC-SVG-20010904/DTD/svg10.dtd">
<svg version="1.0" xmlns="http://www.w3.org/2000/svg"
 width="160.000000pt" height="160.000000pt" viewBox="0 0 160.000000 160.000000"
 preserveAspectRatio="xMidYMid meet">
<metadata>
Created by potrace 1.11, written by Peter Selinger 2001-2013
</metadata>
<g transform="translate(0.000000,160.000000) scale(0.100000,-0.100000)"
fill="#000000" stroke="none">
<path d="M26 1475 l-25 -25 0 -540 1 -541 23 -27 23 -27 271 0 272 0 -2 -72
c-2 -94 -21 -126 -88 -150 -32 -11 -52 -24 -55 -37 -7 -26 9 -35 59 -37 145
-3 610 1 626 6 10 4 19 12 19 20 0 18 -29 47 -40 40 -5 -3 -11 -1 -15 5 -3 5
-13 10 -21 10 -19 0 -64 48 -65 69 0 9 -3 44 -5 79 -2 34 -1 63 4 63 4 1 128
2 275 3 l269 1 24 28 24 28 -3 545 -2 546 -24 19 c-22 18 -50 19 -772 19
l-748 0 -25 -25z"/>
</g>
</svg>
